<?xml version="1.0" encoding="UTF-8"?>
<svg width="87px" height="46px" viewBox="0 0 87 46" version="1.1" xmlns="http://www.w3.org/2000/svg" xmlns:xlink="http://www.w3.org/1999/xlink">
    <!-- Generator: Sketch 61 (89581) - https://sketch.com -->
    <title>logo</title>
    <desc>Created with Sketch.</desc>
    <g id="页面-1" stroke="none" stroke-width="1" fill="none" fill-rule="evenodd" opacity="0.88">
        <g id="Apple-TV" transform="translate(-866.000000, -170.000000)" fill="#47B0F9">
            <g id="编组" transform="translate(866.000000, 170.000000)">
                <path d="M15.9206903,45.9988419 C11.6441522,46.0525404 7.54844009,44.2366221 4.66250678,41.0072943 C1.59831395,37.8224684 -0.0814560157,33.5082294 0.0030403365,29.0401487 C-0.0739056312,24.5495905 1.60318787,20.2131436 4.66250678,16.9922047 C9.29647068,11.9061973 16.6494965,10.5470346 22.7300047,13.6525361 C25.7698226,15.7390154 28.2933451,18.520619 30.1009121,21.7772674 C31.2064594,24.0473489 32.1935582,26.3758181 33.0580499,28.7528654 C34.0863258,31.7517163 35.3177988,34.6735353 36.7435036,37.4970513 C38.3309269,40.6809964 40.4480354,43.5578802 43,45.9988419 L15.9206903,45.9988419 L15.9206903,45.9988419 Z M65.947541,17.6211339 C66.4896175,19.5053247 67.2881603,22.3301367 68.3431694,26.0955698 C70.7912568,35.817287 75.3435337,40.9538449 82,41.5052435 C79.156403,44.4239521 75.261346,46.0462805 71.210929,45.9989945 L49.3092896,45.9989945 C45.8095478,43.8871137 42.8644557,40.95291 40.7234973,37.4449449 C38.9587193,34.2750563 37.4668751,30.9573702 36.2644809,27.5286164 C35.3851713,24.9717793 34.3244885,22.4825357 33.0907104,20.0803126 C31.2882932,16.8729472 28.8788188,14.0563973 26,11.7916419 C27.8105602,8.30832383 30.5132196,5.38140824 33.8251366,3.31720598 C40.3399824,-0.927135675 48.6583056,-1.11172981 55.3508197,2.83952379 C58.5953281,4.71645137 61.3197329,7.39074268 63.2721311,10.6151284 C64.3839491,12.8582471 65.2798801,15.2043913 65.947541,17.6211339 L65.947541,17.6211339 Z M68,13.2752694 C68.9412914,13.0804904 69.9011697,12.9885937 70.86254,13.0012159 C75.1767047,12.94691 79.3118052,14.713829 82.2415812,17.8634543 C85.3586451,21.01561 87.0722251,25.2805118 86.9976648,29.7007947 C87.0004068,32.5531303 86.2950184,35.3620283 84.9441035,37.8781956 C78.4633839,38.7799198 74.0599321,34.6750119 71.7337479,25.5634718 C70.6225134,21.3023829 69.3779308,17.2063154 68,13.2752694 L68,13.2752694 Z" id="logo"></path>
            </g>
        </g>
    </g>
</svg>