<?xml version="1.0" encoding="UTF-8"?>
<svg width="366px" height="47px" viewBox="0 0 366 47" version="1.1" xmlns="http://www.w3.org/2000/svg" xmlns:xlink="http://www.w3.org/1999/xlink">
    <!-- Generator: Sketch 61 (89581) - https://sketch.com -->
    <title>编组备份 2</title>
    <desc>Created with Sketch.</desc>
    <g id="页面-1" stroke="none" stroke-width="1" fill="none" fill-rule="evenodd">
        <g id="Apple-TV" transform="translate(-866.000000, -395.000000)" fill="#47B0F9">
            <g id="编组备份-2" transform="translate(866.000000, 395.000000)">
                <path d="M15.9206903,45.9988419 C11.6441522,46.0525404 7.54844009,44.2366221 4.66250678,41.0072943 C1.59831395,37.8224684 -0.0814560157,33.5082294 0.0030403365,29.0401487 C-0.0739056312,24.5495905 1.60318787,20.2131436 4.66250678,16.9922047 C9.29647068,11.9061973 16.6494965,10.5470346 22.7300047,13.6525361 C25.7698226,15.7390154 28.2933451,18.520619 30.1009121,21.7772674 C31.2064594,24.0473489 32.1935582,26.3758181 33.0580499,28.7528654 C34.0863258,31.7517163 35.3177988,34.6735353 36.7435036,37.4970513 C38.3309269,40.6809964 40.4480354,43.5578802 43,45.9988419 L15.9206903,45.9988419 L15.9206903,45.9988419 Z M65.947541,17.6211339 C66.4896175,19.5053247 67.2881603,22.3301367 68.3431694,26.0955698 C70.7912568,35.817287 75.3435337,40.9538449 82,41.5052435 C79.156403,44.4239521 75.261346,46.0462805 71.210929,45.9989945 L49.3092896,45.9989945 C45.8095478,43.8871137 42.8644557,40.95291 40.7234973,37.4449449 C38.9587193,34.2750563 37.4668751,30.9573702 36.2644809,27.5286164 C35.3851713,24.9717793 34.3244885,22.4825357 33.0907104,20.0803126 C31.2882932,16.8729472 28.8788188,14.0563973 26,11.7916419 C27.8105602,8.30832383 30.5132196,5.38140824 33.8251366,3.31720598 C40.3399824,-0.927135675 48.6583056,-1.11172981 55.3508197,2.83952379 C58.5953281,4.71645137 61.3197329,7.39074268 63.2721311,10.6151284 C64.3839491,12.8582471 65.2798801,15.2043913 65.947541,17.6211339 L65.947541,17.6211339 Z M68,13.2752694 C68.9412914,13.0804904 69.9011697,12.9885937 70.86254,13.0012159 C75.1767047,12.94691 79.3118052,14.713829 82.2415812,17.8634543 C85.3586451,21.01561 87.0722251,25.2805118 86.9976648,29.7007947 C87.0004068,32.5531303 86.2950184,35.3620283 84.9441035,37.8781956 C78.4633839,38.7799198 74.0599321,34.6750119 71.7337479,25.5634718 C70.6225134,21.3023829 69.3779308,17.2063154 68,13.2752694 L68,13.2752694 Z" id="logo"></path>
                <path d="M119.671875,46.2070312 L124.628906,30 L125.015625,30 L125.015625,46.2070312 L133.980469,46.2070312 C134.050781,45.5976562 134.326172,45.0820312 134.806641,44.6601562 C135.287109,44.2382812 135.878906,44.0039062 136.582031,43.9570312 L136.582031,43.9570312 L136.582031,42.9726562 L130.21875,42.9726562 L130.21875,30 L130.78125,30 L130.78125,31.125 L135.914062,31.125 L135.914062,16.3945312 L133.03125,16.3945312 L134.613281,10.2070312 L129.09375,10.2070312 L127.441406,16.3945312 L121.710938,16.3945312 L120.128906,10.2070312 L114.539062,10.2070312 L116.121094,16.3945312 L113.238281,16.3945312 L113.238281,31.125 L118.371094,31.125 L118.371094,30 L119.039062,30 L114.117188,46.2070312 L119.671875,46.2070312 Z M111.972656,18.1875 L111.972656,14.6367188 L106.382812,14.6367188 L109.230469,10.2070312 L102.585938,10.2070312 L99.7382812,14.6367188 L99.7382812,18.1875 L111.972656,18.1875 Z M130.78125,26.484375 L118.371094,26.484375 L118.371094,19.9101562 L130.78125,19.9101562 L130.78125,26.484375 Z M108.632812,46.2070312 C108.726562,45.4335938 109.083984,44.7832031 109.705078,44.2558594 C110.326172,43.7285156 111.082031,43.4179688 111.972656,43.3242188 L111.972656,43.3242188 L111.972656,42.0234375 L107.71875,42.0234375 L107.71875,33.6210938 L111.972656,33.6210938 L111.972656,30.1757812 L107.71875,30.1757812 L107.71875,24.9375 L111.972656,24.9375 L111.972656,21.421875 L99.7382812,21.421875 L99.7382812,24.9375 L102.691406,24.9375 L102.691406,30.1757812 L99.7382812,30.1757812 L99.7382812,33.6210938 L102.691406,33.6210938 L102.691406,46.2070312 L108.632812,46.2070312 Z M174.480469,46.2773438 L174.480469,42.1992188 L164.460938,42.1992188 L164.460938,38.5429688 L172.828125,38.5429688 L172.828125,34.9570312 L164.460938,34.9570312 L164.460938,32.5664062 L172.582031,32.5664062 L172.582031,26.7304688 L174.480469,26.7304688 L174.480469,23.1445312 L172.582031,23.1445312 L172.582031,17.34375 L164.460938,17.34375 L164.460938,15.796875 L173.601562,15.796875 L173.601562,12.2109375 L164.460938,12.2109375 L164.460938,10.2070312 L158.871094,10.2070312 L158.871094,12.2109375 L151.242188,12.2109375 L151.242188,15.796875 L158.871094,15.796875 L158.871094,17.34375 L152.121094,17.34375 L152.121094,20.7539062 L158.871094,20.7539062 L158.871094,23.1445312 L150.222656,23.1445312 L150.222656,26.7304688 L158.871094,26.7304688 L158.871094,29.1210938 L152.121094,29.1210938 L152.121094,32.5664062 L158.871094,32.5664062 L158.871094,41.3203125 L156.445312,39.2109375 L156.445312,34.3242188 L150.890625,34.3242188 L150.890625,39.8085938 L149.871094,46.1367188 L155.460938,46.1367188 L155.707031,44.5195312 L158.0625,46.2070312 L158.097656,46.1367188 L158.097656,46.2773438 L174.480469,46.2773438 Z M147.550781,46.03125 L147.550781,32.671875 L149.871094,31.96875 L149.871094,29.0507812 L147.550781,29.7539062 L147.550781,18.6796875 L149.976562,18.6796875 L149.976562,15.515625 L147.550781,15.515625 L147.550781,11.1914062 L141.996094,11.1914062 L141.996094,15.515625 L138.058594,15.515625 L138.058594,18.6796875 L141.996094,18.6796875 L141.996094,31.40625 L138.058594,32.6015625 L138.058594,35.5195312 L141.996094,34.359375 L141.996094,41.953125 L138.65625,41.953125 L138.65625,43.21875 C139.359375,43.3125 139.980469,43.6289062 140.519531,44.1679688 C141.058594,44.7070312 141.363281,45.3164062 141.433594,45.9960938 L141.433594,45.9960938 L147.550781,46.03125 Z M166.992188,23.1445312 L164.460938,23.1445312 L164.460938,20.7539062 L166.992188,20.7539062 L166.992188,23.1445312 Z M166.992188,29.1210938 L164.460938,29.1210938 L164.460938,26.7304688 L166.992188,26.7304688 L166.992188,29.1210938 Z M210.058594,13.6875 L210.058594,10.2070312 L178.417969,10.2070312 L178.417969,13.6875 L210.058594,13.6875 Z M212.730469,46.3476562 L208.441406,35.625 L200.742188,35.625 L203.238281,41.7773438 L184.710938,42.4453125 L193.078125,27.0820312 L212.800781,27.0820312 L212.800781,23.5664062 L175.957031,23.5664062 L175.957031,27.0820312 L185.449219,27.0820312 L176.90625,42.6914062 L176.90625,46.2070312 L204.609375,45.1875 L205.066406,46.3476562 L212.730469,46.3476562 Z M222.644531,16.359375 L221.941406,10.2070312 L215.894531,10.2070312 L216.5625,16.359375 L222.644531,16.359375 Z M241.558594,46.2070312 L241.558594,27.46875 L251.121094,27.46875 L251.121094,23.4960938 L241.558594,23.4960938 L241.558594,10.2070312 L235.476562,10.2070312 L235.476562,23.4960938 L225.914062,23.4960938 L225.914062,27.46875 L235.476562,27.46875 L235.476562,46.2070312 L241.558594,46.2070312 Z M225.914062,46.2070312 L225.914062,42.65625 L222.890625,42.65625 L222.890625,18.7851562 L214.277344,18.7851562 L214.277344,22.3007812 L217.195312,22.3007812 L217.195312,46.2070312 L225.914062,46.2070312 Z M265.675781,18.328125 L264.902344,15.4101562 L269.859375,15.4101562 L269.859375,12 L260.15625,12 L260.824219,10.4179688 L254.777344,10.4179688 L252.667969,15.4101562 L258.855469,15.4101562 L259.628906,18.328125 L265.675781,18.328125 Z M284.554688,18.328125 L283.816406,15.4101562 L289.089844,15.4101562 L289.089844,12 L279.105469,12 L279.738281,10.4179688 L273.691406,10.4179688 L271.617188,15.4101562 L277.769531,15.4101562 L278.507812,18.328125 L284.554688,18.328125 Z M260.929688,35.9765625 L260.929688,35.484375 L279.949219,35.484375 L279.949219,35.9765625 L286.59375,35.9765625 L286.59375,19.3476562 L262.6875,19.3476562 L260.929688,21.0703125 L260.929688,19.3476562 L254.425781,19.3476562 L254.425781,35.9765625 L260.929688,35.9765625 Z M279.949219,23.8476562 L260.929688,23.8476562 L260.929688,22.5117188 L279.949219,22.5117188 L279.949219,23.8476562 Z M279.949219,28.1015625 L260.929688,28.1015625 L260.929688,26.8007812 L279.949219,26.8007812 L279.949219,28.1015625 Z M279.949219,32.5664062 L260.929688,32.5664062 L260.929688,31.0195312 L279.949219,31.0195312 L279.949219,32.5664062 Z M262.96875,46.2070312 L264.09375,41.8828125 L278.261719,41.8828125 L278.261719,46.2070312 L284.976562,46.2070312 L284.976562,41.8828125 L289.089844,41.8828125 L289.089844,38.9296875 L284.976562,38.9296875 L284.976562,36.8554688 L278.261719,36.8554688 L278.261719,38.9296875 L264.796875,38.9296875 L265.324219,36.8554688 L258.609375,36.8554688 L258.117188,38.9296875 L252.597656,38.9296875 L252.597656,41.8828125 L257.34375,41.8828125 L256.253906,46.2070312 L262.96875,46.2070312 Z M312.117188,46.1015625 L312.117188,33.0234375 L327.410156,33.0234375 L327.410156,29.1914063 L312.117188,29.1914063 L312.117188,14.0039062 L326.496094,14.0039062 L326.496094,10.2070312 L311.730469,10.2070312 L311.730469,10.171875 L306.210938,10.171875 L306.210938,10.2070312 L291.480469,10.2070312 L291.480469,14.0039062 L305.824219,14.0039062 L305.824219,29.1914063 L290.566406,29.1914063 L290.566406,33.0234375 L305.824219,33.0234375 L305.824219,46.1015625 L312.117188,46.1015625 Z M302.695312,28.1367188 L299.953125,15.0585938 L294.046875,15.0585938 L296.789062,28.1367188 L302.695312,28.1367188 Z M321.152344,28.1367188 L323.894531,15.0585938 L317.988281,15.0585938 L315.246094,28.1367188 L321.152344,28.1367188 Z M365.730469,26.3085938 L365.730469,22.5820312 L359.296875,12.28125 L353.355469,12.28125 L359.824219,22.5820312 L335.144531,22.5820312 L344.425781,10.2070312 L338.203125,10.2070312 L328.886719,22.5820312 L328.886719,26.3085938 L365.730469,26.3085938 Z M334.476562,46.2070312 L334.476562,44.6601562 L360.175781,44.6601562 L360.175781,46.2070312 L365.730469,46.2070312 L365.730469,27.6796875 L335.988281,27.6796875 L334.476562,29.6132812 L334.476562,27.6796875 L328.921875,27.6796875 L328.921875,46.2070312 L334.476562,46.2070312 Z M360.175781,41.109375 L334.476562,41.109375 L334.476562,31.2304688 L360.175781,31.2304688 L360.175781,41.109375 Z" id="锐捷云计算平台" fill-rule="nonzero"></path>
            </g>
        </g>
    </g>
</svg>