<?xml version="1.0" encoding="UTF-8"?>
<svg width="360px" height="46px" viewBox="0 0 360 46" version="1.1" xmlns="http://www.w3.org/2000/svg" xmlns:xlink="http://www.w3.org/1999/xlink">
    <!-- Generator: Sketch 61 (89581) - https://sketch.com -->
    <title>编组</title>
    <desc>Created with Sketch.</desc>
    <g id="页面-1" stroke="none" stroke-width="1" fill="none" fill-rule="evenodd">
        <g id="Apple-TV" transform="translate(-866.000000, -170.000000)">
            <g id="编组" transform="translate(866.000000, 170.000000)">
                <path d="M15.9206903,45.9988419 C11.6441522,46.0525404 7.54844009,44.2366221 4.66250678,41.0072943 C1.59831395,37.8224684 -0.0814560157,33.5082294 0.0030403365,29.0401487 C-0.0739056312,24.5495905 1.60318787,20.2131436 4.66250678,16.9922047 C9.29647068,11.9061973 16.6494965,10.5470346 22.7300047,13.6525361 C25.7698226,15.7390154 28.2933451,18.520619 30.1009121,21.7772674 C31.2064594,24.0473489 32.1935582,26.3758181 33.0580499,28.7528654 C34.0863258,31.7517163 35.3177988,34.6735353 36.7435036,37.4970513 C38.3309269,40.6809964 40.4480354,43.5578802 43,45.9988419 L15.9206903,45.9988419 L15.9206903,45.9988419 Z M65.947541,17.6211339 C66.4896175,19.5053247 67.2881603,22.3301367 68.3431694,26.0955698 C70.7912568,35.817287 75.3435337,40.9538449 82,41.5052435 C79.156403,44.4239521 75.261346,46.0462805 71.210929,45.9989945 L49.3092896,45.9989945 C45.8095478,43.8871137 42.8644557,40.95291 40.7234973,37.4449449 C38.9587193,34.2750563 37.4668751,30.9573702 36.2644809,27.5286164 C35.3851713,24.9717793 34.3244885,22.4825357 33.0907104,20.0803126 C31.2882932,16.8729472 28.8788188,14.0563973 26,11.7916419 C27.8105602,8.30832383 30.5132196,5.38140824 33.8251366,3.31720598 C40.3399824,-0.927135675 48.6583056,-1.11172981 55.3508197,2.83952379 C58.5953281,4.71645137 61.3197329,7.39074268 63.2721311,10.6151284 C64.3839491,12.8582471 65.2798801,15.2043913 65.947541,17.6211339 L65.947541,17.6211339 Z M68,13.2752694 C68.9412914,13.0804904 69.9011697,12.9885937 70.86254,13.0012159 C75.1767047,12.94691 79.3118052,14.713829 82.2415812,17.8634543 C85.3586451,21.01561 87.0722251,25.2805118 86.9976648,29.7007947 C87.0004068,32.5531303 86.2950184,35.3620283 84.9441035,37.8781956 C78.4633839,38.7799198 74.0599321,34.6750119 71.7337479,25.5634718 C70.6225134,21.3023829 69.3779308,17.2063154 68,13.2752694 L68,13.2752694 Z" id="logo" fill="#47B0F9" opacity="0.88"></path>
                <path d="M124.490566,40.754717 L134.830189,40.6037736 L134.867925,33.8113208 L133.132075,33.6981132 L132.867925,38.2264151 L131.056604,38.2641509 L131.018868,26.0754717 L133.773585,26.0754717 C133.698113,20.7421384 133.660377,15.4213836 133.660377,10.1132075 L133.660377,10.1132075 L131.584906,10.1132075 C131.786164,9.18238994 132,7.86163522 132.226415,6.1509434 L132.226415,6.1509434 L125.660377,6.1509434 C125.433962,7.73584906 125.194969,9.05660377 124.943396,10.1132075 L124.943396,10.1132075 L123.018868,10.1132075 L121.886792,6.03773585 L115.660377,6.22641509 C115.735849,6.60377358 115.962264,7.91194969 116.339623,10.1509434 L116.339623,10.1509434 L113.735849,10.1132075 L113.735849,26.1509434 L116.415094,26.0754717 C116.314465,27.6352201 116.09434,29.6163522 115.754717,32.0188679 C115.415094,34.4213836 114.792453,37.3081761 113.886792,40.6792453 L113.886792,40.6792453 L120.641509,40.6792453 C121.849057,36.9559748 122.578616,32.0880503 122.830189,26.0754717 L122.830189,26.0754717 L124.566038,26.0754717 L124.490566,40.754717 Z M106.679245,14.2264151 C107.031447,12.918239 107.295597,11.572327 107.471698,10.1886792 L107.471698,10.1886792 L112.566038,10.1886792 L112.603774,7.9245283 L107.698113,8 L107.849057,6.22641509 L101.396226,6.03773585 C100.893082,9.20754717 100.427673,11.9371069 100,14.2264151 L100,14.2264151 L106.679245,14.2264151 Z M120.566038,23.7735849 L120.566038,12.3773585 L126.981132,12.3773585 L126.981132,23.6981132 L120.566038,23.7735849 Z M102.981132,40.6415094 L109.773585,40.6037736 L112.490566,39.0566038 L112.301887,36.3396226 L109.660377,37.8490566 L109.698113,26.4528302 C110.679245,26.3773585 111.610063,26.3773585 112.490566,26.4528302 L112.490566,26.4528302 L112.566038,24.0377358 L109.660377,24.0377358 L109.698113,17.3584906 L112.415094,17.3207547 L112.490566,15.0566038 L100.075472,15.0188679 L100.150943,17.3207547 L102.830189,17.3584906 L102.867925,24.1509434 L100.264151,24.0754717 L100.150943,26.3396226 L102.867925,26.3018868 L102.981132,40.6415094 Z M172.415094,40.7924528 C172.465409,39.9119497 172.465409,38.8553459 172.415094,37.6226415 L172.415094,37.6226415 L163.169811,37.6226415 L163.169811,33.6603774 C166.08805,33.6352201 168.993711,33.5849057 171.886792,33.509434 L171.886792,33.509434 L171.886792,31.1698113 L163.207547,31.1698113 L163.207547,27.4339623 C165.72327,27.4339623 168.389937,27.408805 171.207547,27.3584906 L171.207547,27.3584906 L171.09434,21.0188679 L172.415094,21.0188679 L172.415094,18.7924528 L171.056604,18.754717 L171.056604,12.5283019 L163.207547,12.6415094 L163.207547,10.1509434 L172,10.3018868 L172.037736,8.03773585 L163.207547,8 L163.207547,6.1509434 L156.264151,6.11320755 L156.188679,7.9245283 C153.798742,7.97484277 151.396226,7.97484277 148.981132,7.9245283 L148.981132,7.9245283 L148.943396,10.3018868 L156.188679,10.3018868 L156.188679,12.4150943 L149.886792,12.3773585 L150,14.754717 L156.150943,14.8679245 L156.150943,18.7169811 L149.09434,18.754717 L149.09434,21.1320755 L156.150943,21.1320755 C156.201258,22.2893082 156.188679,23.572327 156.113208,24.9811321 C154.201258,25.081761 152.125786,25.1194969 149.886792,25.0943396 L149.886792,25.0943396 L149.886792,27.245283 L156.226415,27.3584906 L156.113208,36.0377358 L154.188679,34 C154.314465,32.7924528 154.45283,31.0440252 154.603774,28.754717 L154.603774,28.754717 L149.320755,28.754717 C149.169811,31.1949686 149.056604,32.9559748 148.981132,34.0377358 C148.90566,35.1194969 148.477987,37.3207547 147.698113,40.6415094 C149.157233,40.6666667 151.081761,40.7044025 153.471698,40.754717 L153.471698,40.754717 L153.849057,37.509434 C155.408805,39.672956 157.647799,40.7672956 160.566038,40.7924528 L160.566038,40.7924528 L172.415094,40.7924528 Z M146.981132,40.6792453 C146.981132,35.0691824 146.968553,29.3962264 146.943396,23.6603774 L146.943396,23.6603774 L148.490566,23.0188679 L148.490566,20.5283019 L146.943396,21.1320755 L146.943396,13.8867925 L148.490566,13.8867925 L148.490566,11.4339623 L147.056604,11.4339623 L147.056604,6.26415094 L140.188679,6.1509434 C140.238994,7.81132075 140.226415,9.59748428 140.150943,11.509434 L140.150943,11.509434 L137.849057,11.509434 L137.849057,14.0377358 L140.150943,14.0377358 L140.264151,22.7924528 L138.075472,23.6981132 L138.075472,26.0754717 C138.075472,26.1509434 138.220126,26.1320755 138.509434,26.0188679 C138.798742,25.9056604 139.383648,25.6603774 140.264151,25.2830189 L140.264151,25.2830189 L140.264151,26.8679245 C140.264151,27.4968553 140.257862,28.5157233 140.245283,29.9245283 C140.232704,31.3333333 140.238994,34.0503145 140.264151,38.0754717 C139.584906,37.4968553 139.150943,37.1446541 138.962264,37.0188679 C138.773585,36.8930818 138.477987,36.7044025 138.075472,36.4528302 L138.075472,36.4528302 L138.075472,38.754717 C138.955975,39.408805 139.685535,40.0503145 140.264151,40.6792453 L140.264151,40.6792453 L146.981132,40.6792453 Z M164.90566,18.6415094 L163.056604,18.6415094 L163.056604,14.754717 L164.90566,14.754717 L164.90566,18.6415094 Z M164.90566,24.9811321 L163.056604,24.9811321 L163.056604,21.0188679 L164.90566,21.0188679 L164.90566,24.9811321 Z M207.698113,10.1132075 L207.698113,7.50943396 L178.339623,7.50943396 L178.339623,10.1132075 L207.698113,10.1132075 Z M178.90566,40.5283019 L209.358491,40.4528302 L202.867925,24.7924528 L196.188679,24.7924528 L200.943396,37.8113208 L186.716981,38 L193.018868,21.3962264 L209.735849,21.3962264 L209.735849,18.6792453 L176.679245,18.6792453 L176.679245,21.3962264 L185.471698,21.3962264 L178.792453,38.3018868 L178.90566,40.5283019 Z M240.301887,40.9056604 L240.301887,18.754717 L247.962264,18.754717 L247.849057,15.8490566 L240.301887,15.8490566 L240.301887,6.11320755 L232.90566,6 L232.90566,15.8490566 L225.886792,15.8490566 L225.886792,18.754717 L232.90566,18.754717 L232.90566,40.6037736 C232.90566,40.7295597 233.044025,40.8113208 233.320755,40.8490566 C233.597484,40.8867925 234.251572,40.9056604 235.283019,40.9056604 L240.301887,40.9056604 Z M224.377358,11.8490566 L222.943396,6.22641509 L215.433962,6.18867925 L216.754717,11.8490566 L224.377358,11.8490566 Z M223.018868,40.6415094 C225.886792,39.6352201 228,38.754717 229.358491,38 L229.358491,38 L229.207547,34.9811321 C228.201258,35.3836478 226.327044,36.1257862 223.584906,37.2075472 L223.584906,37.2075472 L223.433962,12.8679245 L213.207547,12.8301887 L213.207547,15.5471698 L217.245283,15.5471698 L217.358491,40.4528302 C219.345912,40.5786164 221.232704,40.6415094 223.018868,40.6415094 Z M274.792453,13.4716981 L276.113208,9.58490566 L276.528302,9.58490566 L277.849057,13.4716981 L283.358491,13.4716981 L281.924528,9.58490566 L285.471698,9.58490566 L285.471698,7.20754717 L276.830189,7.20754717 L277.132075,6.1509434 L270.603774,6.1509434 L267.811321,13.4716981 L274.792453,13.4716981 Z M267.433962,13.4716981 L265.886792,9.58490566 L268.339623,9.58490566 L268.339623,7.20754717 L260.037736,7.20754717 L260.415094,6.1509434 L254.075472,6.1509434 L251.509434,13.3584906 L258.075472,13.4716981 L259.396226,9.58490566 L260.188679,9.58490566 L261.735849,13.4716981 L267.433962,13.4716981 Z M282.792453,29.3584906 L282.792453,14.2641509 L253.886792,14.2641509 L253.886792,29.3584906 L282.792453,29.3584906 Z M275.698113,18.754717 L260.754717,18.754717 L260.754717,16.6415094 L275.698113,16.6415094 L275.698113,18.754717 Z M275.698113,23.0943396 L260.754717,23.0943396 L260.754717,21.1320755 L275.698113,21.1320755 L275.698113,23.0943396 Z M275.698113,27.2075472 L260.754717,27.2075472 L260.754717,25.1698113 L275.698113,25.1698113 L275.698113,27.2075472 Z M262.415094,40.6792453 C263.496855,38.8176101 264.314465,36.6918239 264.867925,34.3018868 L264.867925,34.3018868 L272.301887,34.3018868 L272.301887,40.5660377 L279.018868,40.5660377 L279.018868,34.3018868 L285.396226,34.3018868 L285.396226,32.3773585 L279.018868,32.3773585 L279.018868,30.3396226 L272.301887,30.3396226 L272.301887,32.3773585 L265.207547,32.3773585 C265.333333,31.6981132 265.433962,30.9811321 265.509434,30.2264151 L265.509434,30.2264151 L258.679245,30.2264151 C258.578616,30.9559748 258.45283,31.672956 258.301887,32.3773585 L258.301887,32.3773585 L251.811321,32.3773585 L251.811321,34.3018868 L257.773585,34.3018868 C257.622642,34.7295597 257.459119,35.1446541 257.283019,35.5471698 C256.603774,37.2075472 255.534591,38.918239 254.075472,40.6792453 L254.075472,40.6792453 L262.415094,40.6792453 Z M309.811321,40.8679245 L309.811321,30.5660377 L322.90566,30.5660377 L322.90566,28.1132075 L309.811321,28.1132075 L309.811321,9.24528302 L322.528302,9.24528302 L322.528302,6.90566038 L289.698113,6.90566038 L289.698113,9.24528302 L302.264151,9.24528302 L302.264151,28.1132075 L289.320755,28.1132075 L289.320755,30.5660377 L302.264151,30.5660377 L302.264151,40.8679245 L309.811321,40.8679245 Z M318.528302,26.5283019 C319.257862,21.0440252 319.698113,17.7044025 319.849057,16.509434 C320,15.3144654 320.238994,13.3836478 320.566038,10.7169811 L320.566038,10.7169811 L314.150943,10.7169811 C313.698113,14.3396226 313.396226,16.7987421 313.245283,18.0943396 C313.09434,19.3899371 312.867925,20.7106918 312.566038,22.0566038 C312.264151,23.4025157 311.949686,24.8930818 311.622642,26.5283019 L311.622642,26.5283019 L318.528302,26.5283019 Z M300.792453,26.5283019 L299.886792,20.6415094 C299.308176,16.6918239 298.805031,13.3962264 298.377358,10.754717 L298.377358,10.754717 L291.584906,10.754717 L293.811321,26.5283019 L300.792453,26.5283019 Z M360,20.9811321 L353.471698,7.54716981 L346.45283,7.54716981 L351.245283,17.8867925 L336.943396,17.8867925 L343.396226,6 L335.698113,6 L328.037736,18.3396226 L328.037736,20.9811321 L360,20.9811321 Z M358.264151,40.6415094 L358.339623,23.2830189 L329.471698,23.0943396 L329.396226,40.6415094 L358.264151,40.6415094 Z M350.716981,38.2264151 L336.867925,38.2264151 L336.867925,25.6981132 L350.716981,25.6981132 L350.716981,38.2264151 Z" id="锐捷云计算平台" fill="#5CB9F9" fill-rule="nonzero"></path>
            </g>
        </g>
    </g>
</svg>